HIERARCHY
ROOT Pelvis
{
	OFFSET 0.000000 0.000000 0.000000
	CHANNELS 6 Xposition Yposition Zposition Xrotation Yrotation Zrotation
	JOINT LeftUpLeg_virtual
	{
		OFFSET 0.000000 0.000000 0.000000
		CHANNELS 3 Xrotation Yrotation Zrotation
		JOINT LeftUpLeg
		{
			OFFSET 18.735201 -5.666702 -4.541200
			CHANNELS 3 Xrotation Yrotation Zrotation
			JOINT LeftLeg
			{
				OFFSET -0.021200 -31.938179 0.493100
				CHANNELS 3 Xrotation Yrotation Zrotation
				JOINT LeftFoot
				{
					OFFSET 0.021200 -31.938179 -4.336299
					CHANNELS 3 Xrotation Yrotation Zrotation
					JOINT LeftToeBase
					{
						OFFSET 0.943001 -26.722000 15.023500
						CHANNELS 3 Xrotation Yrotation Zrotation
						End Site
						{
							OFFSET 0 0 0
						}
					}
				}
			}
		}
	}
	JOINT RightUpLeg_virtual
	{
		OFFSET 0.000000 0.000000 0.000000
		CHANNELS 3 Xrotation Yrotation Zrotation
		JOINT RightUpLeg
		{
			OFFSET -18.735201 -5.666702 -4.541200
			CHANNELS 3 Xrotation Yrotation Zrotation
			JOINT RightLeg
			{
				OFFSET 0.018946 -31.938133 0.493100
				CHANNELS 3 Xrotation Yrotation Zrotation
				JOINT RightFoot
				{
					OFFSET -0.018946 -31.938126 -4.336299
					CHANNELS 3 Xrotation Yrotation Zrotation
					JOINT RightToeBase
					{
						OFFSET -0.943001 -26.722004 15.023500
						CHANNELS 3 Xrotation Yrotation Zrotation
						End Site
						{
							OFFSET 0 0 0
						}
					}
				}
			}
		}
	}
	JOINT Hips_virtual
	{
		OFFSET 0.000000 0.000000 0.000000
		CHANNELS 3 Xrotation Yrotation Zrotation
		JOINT Hips
		{
			OFFSET -0.000000 -0.000000 -0.000000
			CHANNELS 3 Xrotation Yrotation Zrotation
			JOINT Spine
			{
				OFFSET 0.000000 10.199997 -0.299500
				CHANNELS 3 Xrotation Yrotation Zrotation
				JOINT Spine1
				{
					OFFSET 0.000000 11.900002 -1.516600
					CHANNELS 3 Xrotation Yrotation Zrotation
					JOINT Spine2
					{
						OFFSET 0.000000 13.600006 -2.842500
						CHANNELS 3 Xrotation Yrotation Zrotation
						JOINT Neck_virtual
						{
							OFFSET 0.000000 0.000000 0.000000
							CHANNELS 3 Xrotation Yrotation Zrotation
							JOINT Neck
							{
								OFFSET 0.000000 9.624100 -2.890100
								CHANNELS 3 Xrotation Yrotation Zrotation
								JOINT Head
								{
									OFFSET 0.000000 14.068802 -1.351900
									CHANNELS 3 Xrotation Yrotation Zrotation
									End Site
									{
										OFFSET 0 0 0
									}
								}
							}
						}
						JOINT LeftShoulder_virtual
						{
							OFFSET 0.000000 0.000000 0.000000
							CHANNELS 3 Xrotation Yrotation Zrotation
							JOINT LeftShoulder
							{
								OFFSET 15.263000 10.923401 -0.547700
								CHANNELS 3 Xrotation Yrotation Zrotation
								JOINT LeftArm
								{
									OFFSET 25.438599 -2.830597 -13.032500
									CHANNELS 3 Xrotation Yrotation Zrotation
									JOINT LeftForeArm
									{
										OFFSET 29.960503 0.000000 0.000000
										CHANNELS 3 Xrotation Yrotation Zrotation
										JOINT LeftHand
										{
											OFFSET 27.849251 0.000000 0.000000
											CHANNELS 3 Xrotation Yrotation Zrotation
											End Site
											{
												OFFSET 0 0 0
											}
										}
									}
								}
							}
						}
						JOINT RightShoulder_virtual
						{
							OFFSET 0.000000 0.000000 0.000000
							CHANNELS 3 Xrotation Yrotation Zrotation
							JOINT RightShoulder
							{
								OFFSET -15.263000 10.923401 -0.547700
								CHANNELS 3 Xrotation Yrotation Zrotation
								JOINT RightArm
								{
									OFFSET -25.438599 -2.830597 -13.032500
									CHANNELS 3 Xrotation Yrotation Zrotation
									JOINT RightForeArm
									{
										OFFSET -29.960503 0.000000 0.000000
										CHANNELS 3 Xrotation Yrotation Zrotation
										JOINT RightHand
										{
											OFFSET -27.849251 0.000000 0.000000
											CHANNELS 3 Xrotation Yrotation Zrotation
											End Site
											{
												OFFSET 0 0 0
											}
										}
									}
								}
							}
						}
					}
				}
			}
		}
	}
}
MOTION
Frames: 6
Frame Time: 0.03333333
0.377324 69.413658 2.676197 0.000000 0.000000 0.000000 16.557272 -8.661792 -4.340616 -93.886845 0.013719 0.496175 50.500073 11.348897 -3.614748 17.681008 26.184910 16.726461 0.000000 0.000000 0.000000 16.557272 -8.661792 -4.340616 18.014293 -13.229461 5.831662 36.899475 -9.686204 8.173815 -26.334754 -12.117464 17.227260 0.000000 0.000000 0.000000 16.557272 -8.661792 -4.340616 0.000000 -0.000001 0.000000 10.957534 14.179353 -9.149040 2.878199 4.087948 -0.126407 0.000000 0.000000 0.000000 2.848458 4.312289 -0.311449 -0.301850 -0.900148 1.784619 0.000000 0.000000 0.000000 2.848458 4.312289 -0.311449 1.187666 -1.370113 -14.873642 -9.759259 30.208417 -41.048853 0.000005 -11.762808 -0.000004 0.000000 0.000000 0.000000 2.848458 4.312289 -0.311449 2.870344 11.957085 -6.152307 -33.803638 70.877556 6.927796 -179.999868 85.290478 179.999896 0.000000 0.000000 0.000000 
-0.487482 69.567490 4.041525 0.000000 0.000000 0.000000 18.131717 -8.219118 -4.362045 -95.815997 -0.153941 0.786581 53.145186 10.406820 -3.576978 16.032033 26.003859 15.675359 0.000000 0.000000 0.000000 18.131717 -8.219118 -4.362045 9.864825 -13.220461 2.331605 45.265115 -8.880779 8.893542 -24.306439 -12.797320 18.189685 0.000000 0.000000 0.000000 18.131717 -8.219118 -4.362045 -0.000001 -0.000001 -0.000000 11.400936 13.526859 -9.288370 2.886044 3.978105 -0.232998 0.000000 0.000000 0.000000 2.857335 4.195417 -0.413707 -0.335212 -0.891922 1.749059 0.000000 0.000000 0.000000 2.857335 4.195417 -0.413707 1.200903 -1.794888 -15.693772 -10.576659 29.125132 -39.831648 0.000001 -14.202280 0.000013 0.000000 0.000000 0.000000 2.857335 4.195417 -0.413707 2.895095 12.404891 -5.753552 -30.219967 69.244273 3.681440 -179.999841 83.877687 179.999855 0.000000 0.000000 0.000000 
-1.315985 69.703781 5.385468 0.000000 0.000000 0.000000 19.745578 -7.795589 -4.397111 -97.670783 -0.346690 1.065019 55.559347 9.495780 -3.535544 14.446188 25.857370 14.691995 0.000000 0.000000 0.000000 19.745578 -7.795589 -4.397111 2.245551 -12.820205 -1.127479 51.781693 -7.828369 9.302432 -20.553036 -13.197619 19.142339 0.000000 0.000000 0.000000 19.745578 -7.795589 -4.397111 -0.000001 0.000000 0.000000 11.853549 12.852316 -9.460893 2.894004 3.864281 -0.347307 0.000000 0.000000 0.000000 2.866447 4.074824 -0.524105 -0.371652 -0.883188 1.711227 0.000000 0.000000 0.000000 2.866447 4.074824 -0.524105 1.202246 -2.183952 -16.571267 -11.438025 28.007285 -38.630864 -0.000011 -16.749041 0.000001 0.000000 0.000000 0.000000 2.866447 4.074824 -0.524105 2.921957 12.894766 -5.335065 -27.021021 67.470255 0.787263 179.999909 82.416355 -179.999923 0.000000 0.000000 0.000000 
-2.124940 69.796768 6.721172 0.000000 0.000000 0.000000 21.392803 -7.405557 -4.447993 -99.527365 -0.577043 1.354978 57.887520 8.607482 -3.496618 12.876676 25.737683 13.751935 0.000000 0.000000 0.000000 21.392803 -7.405557 -4.447993 -4.853518 -12.112418 -4.484086 56.648025 -6.504388 9.519141 -15.546414 -13.327559 19.901266 0.000000 0.000000 0.000000 21.392803 -7.405557 -4.447993 -0.000003 0.000000 0.000000 12.312212 12.177442 -9.659896 2.901932 3.747262 -0.467804 0.000000 0.000000 0.000000 2.875562 3.951232 -0.641013 -0.410635 -0.873990 1.671354 0.000000 0.000000 0.000000 2.875562 3.951232 -0.641013 1.192190 -2.545275 -17.494053 -12.336928 26.855237 -37.455132 0.000004 -19.379951 -0.000005 0.000000 0.000000 0.000000 2.875562 3.951232 -0.641013 2.947549 13.415560 -4.901033 -24.203559 65.584036 -1.746852 -179.999541 80.919375 179.999568 0.000000 0.000000 0.000000 
-2.926685 69.844521 8.051178 0.000000 0.000000 0.000000 23.068663 -7.045513 -4.511222 -101.393127 -0.852215 1.659433 60.156543 7.734465 -3.460838 11.321268 25.644304 12.835490 0.000000 0.000000 0.000000 23.068663 -7.045513 -4.511222 -11.397412 -11.200082 -7.658736 59.996457 -4.924983 9.622658 -9.726533 -13.271025 20.393466 0.000000 0.000000 0.000000 23.068663 -7.045513 -4.511222 0.000000 0.000000 0.000000 12.776680 11.499640 -9.888283 2.909746 3.626957 -0.594641 0.000000 0.000000 0.000000 2.880758 3.824572 -0.764596 -0.452421 -0.864345 1.629389 0.000000 0.000000 0.000000 2.880758 3.824572 -0.764596 1.171173 -2.879760 -18.461095 -13.275127 25.668679 -36.310693 -0.000004 -22.092930 -0.000002 0.000000 0.000000 0.000000 2.880758 3.824572 -0.764596 2.970381 13.964336 -4.451084 -21.721538 63.600263 -3.964445 179.998338 79.389188 -179.998352 0.000000 0.000000 0.000000 
-3.726626 69.869408 9.370014 0.000000 0.000000 0.000000 24.769647 -6.695731 -4.578805 -103.215203 -1.163672 1.965372 62.296885 6.871068 -3.425204 9.807892 25.578022 11.932375 0.000000 0.000000 0.000000 24.769647 -6.695731 -4.578805 -17.362156 -10.205251 -10.592800 62.006445 -3.168043 9.665484 -3.539882 -13.137064 20.669518 0.000000 0.000000 0.000000 24.769647 -6.695731 -4.578805 0.000001 0.000000 0.000000 13.244479 10.803995 -10.143294 2.917329 3.503998 -0.726580 0.000000 0.000000 0.000000 2.883037 3.695421 -0.893562 -0.496760 -0.854306 1.585505 0.000000 0.000000 0.000000 2.883037 3.695421 -0.893562 1.139410 -3.199048 -19.454397 -14.244501 24.450499 -35.210691 0.000002 -24.857657 0.000001 0.000000 0.000000 0.000000 2.883037 3.695421 -0.893562 2.987623 14.530114 -3.989394 -19.551068 61.547716 -5.879250 -179.999868 77.836262 179.999855 0.000000 0.000000 0.000000 
